<?xml version="1.0" encoding="UTF-8"?>
<svg id="Camada_2" xmlns="http://www.w3.org/2000/svg" viewBox="0 0 316.92 661.52">
  <defs>
    <style>
      .cls-1 {
        fill: #fff;
      }

      .cls-2 {
        fill: #610;
      }

      .cls-3 {
        fill: #ff2a00;
      }

      .cls-4 {
        fill: #ff8000;
      }
    </style>
  </defs>
  <g id="Símbolo">
    <g id="Logo_-_Posiytiva">
      <g id="Isologo">
        <path class="cls-1" d="M286.34,184.3c0,41.57-20.28,80.12-54.38,103.73-.83.58-1.68,1.15-2.53,1.71l-6.18-9.38c3.02-1.99,5.92-4.09,8.71-6.32,27.2-21.73,43.15-54.54,43.15-89.74,0-63.33-51.53-114.85-114.85-114.85s-114.85,51.53-114.85,114.85c0,33.37,14.62,65.03,39.57,86.73,2.83,2.46,5.79,4.79,8.87,6.99l-6.5,9.16c-.8-.56-1.59-1.14-2.37-1.72-31.87-23.76-50.81-61.35-50.81-101.15,0-69.53,56.57-126.09,126.09-126.09s126.09,56.57,126.09,126.09Z"/>
        <g>
          <polygon class="cls-1" points="220.72 357.42 220.72 369.59 178.29 351.91 96.2 393.64 96.2 381.03 177.82 339.54 220.72 357.42"/>
          <path class="cls-1" d="M96.2,381.03v12.61l-11.24,5.71-73.72,37.48-3.07,1.56c-.81.41-1.69.61-2.55.61-2.04,0-4.02-1.12-5.01-3.07-.41-.81-.61-1.69-.61-2.54,0-2.05,1.12-4.03,3.07-5.02l8.17-4.15,73.72-37.48,11.24-5.71Z"/>
          <path class="cls-1" d="M316.92,401.25c0,.72-.14,1.46-.43,2.16-1.2,2.87-4.49,4.21-7.35,3.02l-3.46-1.44-73.72-30.73-11.24-4.68v-12.17l11.24,4.68,73.72,30.72,7.78,3.24c2.16.9,3.46,2.99,3.46,5.19Z"/>
        </g>
        <path class="cls-2" d="M231.29,191.9l-11.14,1.52c-.29-2.14-.7-4.28-1.22-6.38-2.71-10.97-8.42-21.16-16.45-29.19-9.89-9.9-22.96-16.23-36.81-17.82-4.7-.54-9.75-.54-14.44,0-26.08,3.01-47.17,21.95-53.27,47.01-.51,2.09-.91,4.21-1.2,6.38l-11.14-1.52c.22-1.64.5-3.26.82-4.86,5.99-29.28,29.15-52,58.52-57.43,1.64-.31,3.3-.55,4.97-.75,2.05-.23,4.16-.39,6.27-.46,1.5-.04,3-.04,4.5,0,2.11.07,4.21.22,6.27.46,1.67.19,3.32.44,4.97.75,14.49,2.71,28,9.8,38.48,20.29,10.14,10.12,17.15,23.17,20.03,37.13.34,1.6.61,3.23.83,4.86Z"/>
        <rect class="cls-2" x="84.96" y="221.66" width="11.24" height="218.21"/>
        <rect class="cls-2" x="220.72" y="221.66" width="11.24" height="218.21"/>
        <path class="cls-2" d="M225.71,467.81c-.52,1.07-1.08,2.12-1.67,3.15-7.01,12.41-18.23,22.05-31.53,27.1-1.31.51-2.64.96-3.99,1.37-2.38.72-4.8,1.29-7.25,1.71-3.46.61-6.97.91-10.51.91h-24.61c-2.32,0-4.63-.13-6.91-.38-2.33-.26-4.64-.66-6.89-1.19-1.47-.34-2.92-.73-4.35-1.17-14.91-4.59-27.43-14.68-35.14-28.35-.58-1.03-1.13-2.08-1.66-3.15l10.1-4.94c1.41,2.88,3.07,5.58,4.96,8.09,7,9.32,17.05,15.91,28.62,18.57,3.65.85,7.45,1.28,11.27,1.28h24.61c4.94,0,9.81-.72,14.5-2.14,10.15-3.07,19.03-9.35,25.36-17.72,1.91-2.51,3.59-5.23,4.99-8.09l10.1,4.94Z"/>
        <path class="cls-2" d="M234.77,187.04H85.75c-11.09,0-20.12,9.03-20.12,20.12s8.61,19.69,19.33,20.1c.26,0,.52.02.79.02h149.02c11.09,0,20.12-9.03,20.12-20.12s-9.03-20.12-20.12-20.12ZM234.77,216.04H85.75c-4.9,0-8.88-3.98-8.88-8.88s3.98-8.88,8.88-8.88h149.02c4.9,0,8.88,3.98,8.88,8.88s-3.98,8.88-8.88,8.88Z"/>
        <path class="cls-2" d="M235.18,434.25H85.34c-.12,0-.25,0-.37,0-9.96.2-17.98,8.34-17.98,18.35s8.23,18.36,18.36,18.36h149.84c10.12,0,18.36-8.23,18.36-18.36s-8.23-18.36-18.36-18.36ZM235.18,459.72H85.34c-3.92,0-7.12-3.19-7.12-7.12s3.19-7.12,7.12-7.12h149.84c3.92,0,7.12,3.19,7.12,7.12s-3.19,7.12-7.12,7.12Z"/>
        <path class="cls-2" d="M192.51,494.05v14.4c0,8.03-6.53,14.55-14.55,14.55h-35.4c-8.03,0-14.55-6.53-14.55-14.55v-13.45h11.24v13.45c0,1.83,1.49,3.32,3.32,3.32h35.4c1.83,0,3.32-1.49,3.32-3.32v-14.4h11.24Z"/>
        <path class="cls-2" d="M171.94,120.46v13.99h-11.24v-13.23h-4.5v13.23h-11.24v-13.99c0-5.78,4.7-10.48,10.47-10.48h6.03c5.77,0,10.47,4.7,10.47,10.48Z"/>
        <g>
          <path class="cls-1" d="M158.46,0C71.08,0,0,71.08,0,158.46v344.6c0,87.38,71.08,158.46,158.46,158.46s158.46-71.08,158.46-158.46V158.46C316.92,71.08,245.84,0,158.46,0ZM305.68,503.06c0,81.18-66.04,147.22-147.22,147.22S11.24,584.24,11.24,503.06V158.46C11.24,77.28,77.28,11.24,158.46,11.24s147.22,66.04,147.22,147.22v344.6Z"/>
          <path class="cls-2" d="M305.68,405v98.06c0,81.18-66.04,147.22-147.22,147.22S11.24,584.24,11.24,503.06v-66.23l73.72-37.48v34.9c-9.96.2-17.98,8.34-17.98,18.35s8.23,18.36,18.36,18.36h7.53c7.71,13.66,20.23,23.76,35.14,28.35v9.15c0,8.03,6.53,14.55,14.55,14.55h35.4c8.03,0,14.55-6.53,14.55-14.55v-10.4c13.3-5.06,24.52-14.69,31.53-27.1h11.14c10.12,0,18.36-8.23,18.36-18.36s-8.23-18.36-18.36-18.36h-3.22v-59.97l73.72,30.73Z"/>
          <path class="cls-1" d="M181.27,501.14v7.31c0,1.83-1.49,3.32-3.32,3.32h-35.4c-1.83,0-3.32-1.49-3.32-3.32v-6.79c2.29.25,4.59.38,6.91.38h24.61c3.54,0,7.05-.3,10.51-.91Z"/>
          <path class="cls-1" d="M210.62,470.96c-6.33,8.37-15.21,14.65-25.36,17.72-4.68,1.41-9.56,2.14-14.5,2.14h-24.61c-3.82,0-7.61-.43-11.27-1.28-11.57-2.66-21.62-9.25-28.62-18.57h104.36Z"/>
          <path class="cls-1" d="M242.3,452.6c0,3.92-3.19,7.12-7.12,7.12H85.34c-3.92,0-7.12-3.19-7.12-7.12s3.19-7.12,7.12-7.12h149.84c3.92,0,7.12,3.19,7.12,7.12Z"/>
          <polygon class="cls-1" points="220.72 369.59 220.72 434.25 96.2 434.25 96.2 393.64 178.29 351.91 220.72 369.59"/>
          <polygon class="cls-1" points="220.72 227.27 220.72 357.42 177.82 339.54 96.2 381.03 96.2 227.27 220.72 227.27"/>
          <path class="cls-1" d="M243.64,207.16c0,4.9-3.98,8.88-8.88,8.88H85.75c-4.9,0-8.88-3.98-8.88-8.88s3.98-8.88,8.88-8.88h149.02c4.9,0,8.88,3.98,8.88,8.88Z"/>
          <path class="cls-1" d="M218.94,187.04h-120.97c6.1-25.06,27.19-44.01,53.27-47.01,4.69-.54,9.74-.54,14.44,0,13.84,1.59,26.92,7.92,36.81,17.82,8.04,8.04,13.75,18.22,16.45,29.19Z"/>
          <path class="cls-1" d="M160.71,121.21v7.19c-1.5-.04-3-.04-4.5,0v-7.19h4.5Z"/>
          <path class="cls-3" d="M305.68,158.46v234.36l-73.72-30.72v-74.08c34.11-23.61,54.38-62.16,54.38-103.73,0-69.53-56.57-126.09-126.09-126.09s-126.09,56.57-126.09,126.09c0,39.8,18.94,77.39,50.81,101.15v101.29l-73.72,37.48V158.46C11.24,77.28,77.28,11.24,158.46,11.24s147.22,66.04,147.22,147.22Z"/>
          <path class="cls-4" d="M275.1,184.3c0,35.19-15.95,68.01-43.15,89.74v-46.76h2.81c11.09,0,20.12-9.03,20.12-20.12s-9.03-20.12-20.12-20.12h-4.31c-2.88-13.96-9.89-27.01-20.03-37.13-10.48-10.5-23.99-17.59-38.48-20.29v-9.16c0-5.78-4.7-10.48-10.47-10.48h-6.03c-5.77,0-10.47,4.7-10.47,10.48v9.16c-29.37,5.42-52.53,28.15-58.52,57.43h-.7c-11.09,0-20.12,9.03-20.12,20.12s8.61,19.69,19.33,20.1v43.77c-24.95-21.7-39.57-53.36-39.57-86.73,0-63.33,51.53-114.85,114.85-114.85s114.85,51.53,114.85,114.85Z"/>
        </g>
      </g>
    </g>
  </g>
</svg>